<?xml version="1.0" encoding="utf-8"?>
<!-- Generator: Adobe Illustrator 24.0.1, SVG Export Plug-In . SVG Version: 6.00 Build 0)  -->
<svg version="1.1" id="Layer_1" xmlns="http://www.w3.org/2000/svg" xmlns:xlink="http://www.w3.org/1999/xlink" x="0px" y="0px"
	 viewBox="0 0 195.88 195.88" style="enable-background:new 0 0 195.88 195.88;" xml:space="preserve">
<style type="text/css">
	.st0{fill:#262262;}
	.st1{fill:url(#SVGID_1_);}
	.st2{fill:url(#SVGID_2_);}
	.st3{fill:url(#SVGID_3_);}
	.st4{fill:#FFFFFF;}
	.st5{fill:url(#SVGID_4_);}
	.st6{fill:url(#SVGID_5_);}
	.st7{fill:url(#SVGID_6_);}
	.st8{fill:url(#SVGID_7_);}
	.st9{fill:url(#SVGID_8_);}
	.st10{fill:url(#SVGID_9_);}
	.st11{fill:url(#SVGID_10_);}
	.st12{fill:url(#SVGID_11_);}
	.st13{fill:url(#SVGID_12_);}
</style>
<path class="st0" d="M136.98,113.26c0-2.94,1.98-4.87,4.97-4.87c2.8,0,4.58,1.83,4.58,4.63c0,2.94-1.98,4.92-5.02,4.92
	C138.77,117.93,136.98,116.1,136.98,113.26 M100.5,84.5c-2.91,0-5.11,1.65-5.82,4.72l-6.2,27.51c-0.66,2.91,0.77,5.44,4.01,5.44
	c2.8,0,5.27-1.81,5.93-4.61l2.2-9.44h3.95c3.13,0,5.33-1.98,5.33-4.78c0-2.14-1.59-3.62-4.01-3.62h-3.4l1.54-6.86h5.16
	c3.08,0,5.22-1.98,5.22-4.72c0-2.14-1.59-3.62-3.95-3.62H100.5z M126.37,71.33c-2.97,0-5.16,1.65-5.88,4.72l-6.09,26.79
	c-0.71,3.08,0.55,5.66,3.95,5.66h10.6c3.4,0,5.76-1.92,5.76-4.83c0-2.09-1.48-3.51-3.51-3.51h-5.98l1.48-6.48h4.39
	c3.07,0,5.33-1.92,5.33-4.83c0-2.09-1.65-3.57-4.06-3.57h-3.79l1.26-5.6h5.82c3.08,0,5.27-1.98,5.27-4.78
	c0-2.14-1.65-3.57-4.01-3.57H126.37z M79.37,82.95l-6.15,27.67c-0.71,3.13,1.04,5.44,4.06,5.44c2.69,0,5.27-1.59,5.93-4.67
	l6.15-27.89c0.71-3.29-0.88-5.6-4.39-5.6C82,77.89,80.08,79.76,79.37,82.95 M61.34,94.59l-6.09,27.34c-0.77,3.4,0.71,5.66,3.95,5.66
	h10.71c3.84,0,5.76-1.81,5.76-4.72c0-2.09-1.59-3.62-4.06-3.62h-5.66l5.38-23.94c0.71-3.13-1.21-5.38-4.45-5.38
	C64.36,89.92,61.95,91.79,61.34,94.59 M42.21,117.98c0.05-0.02,0.11-0.03,0.17-0.03c0.17,0,0.32,0.09,0.39,0.25l1.55,3.76
	c0.11,0.26-0.01,0.55-0.27,0.65l-9.58,3.96c-0.25,0.1-0.55-0.02-0.66-0.27c-0.1-0.25,0.03-0.54,0.28-0.64l9.24-3.82l-1.37-3.31
	C41.88,118.32,41.96,118.08,42.21,117.98 M40.14,110.95c0.04-0.01,0.08-0.02,0.12-0.02c0.19,0,0.36,0.12,0.41,0.3l1.11,4.01
	c0.08,0.27-0.07,0.54-0.35,0.62l-9.94,2.76c-0.27,0.08-0.54-0.07-0.62-0.35l-1.11-3.98c-0.07-0.24,0.08-0.46,0.31-0.52
	c0.24-0.07,0.48,0.04,0.55,0.28l0.98,3.51l3.98-1.11l-0.84-3.03c-0.06-0.23,0.08-0.46,0.32-0.52c0.22-0.06,0.47,0.06,0.53,0.29
	l0.84,3.03l4.37-1.21l-0.98-3.55C39.75,111.25,39.9,111.02,40.14,110.95 M35.73,107.89l-0.44-3.44l-5.79,2.46l0,0.02L35.73,107.89z
	 M38.85,102c0.02,0,0.04,0,0.05,0c0.22,0,0.39,0.18,0.42,0.42c0.03,0.25-0.09,0.45-0.33,0.57l-2.87,1.19l0.48,3.77l3.06,0.44
	c0.33,0.06,0.45,0.23,0.48,0.48c0.04,0.31-0.22,0.52-0.57,0.46l-10.42-1.59c-0.53-0.08-0.72-0.35-0.77-0.71
	c-0.05-0.38,0.12-0.62,0.64-0.84l9.54-4.09C38.66,102.04,38.74,102.01,38.85,102 M33.1,98.58l0.03-1.54
	c0.02-1.25-0.77-2.1-2.23-2.13c-1.64-0.03-2.19,0.9-2.21,2.12l-0.02,1.47L33.1,98.58z M38.55,93.94c0.08-0.05,0.18-0.08,0.28-0.08
	c0,0,0.01,0,0.01,0c0.22,0,0.43,0.21,0.43,0.47c0,0.2-0.11,0.33-0.24,0.41l-5.06,2.3l-0.02,1.56l4.75,0.08
	c0.27,0,0.5,0.22,0.49,0.49c0,0.27-0.24,0.5-0.51,0.49L28.3,99.49c-0.28,0-0.5-0.22-0.49-0.51l0.03-1.94
	c0.03-2.01,0.89-3.16,3.03-3.13c1.51,0.02,2.65,0.93,2.94,2.17L38.55,93.94 M166.95,89.04c0.1-0.05,0.21-0.08,0.31-0.08
	c0.23,0,0.43,0.14,0.45,0.42c0.02,0.22-0.07,0.37-0.26,0.47l-5.42,2.76l0,0.02l5.82,1.87c0.24,0.08,0.29,0.28,0.3,0.41
	c0.03,0.35-0.29,0.54-0.65,0.42l-6.36-2.18l-4.07,0.32c-0.27,0.02-0.5-0.18-0.52-0.44c-0.02-0.28,0.18-0.52,0.44-0.54l4.07-0.32
	L166.95,89.04 M29.19,83.4c0.04-0.22,0.24-0.37,0.47-0.37c0.03,0,0.06,0,0.08,0.01l10.32,1.66c0.3,0.05,0.45,0.26,0.4,0.57
	c-0.04,0.25-0.19,0.34-0.44,0.42l-9.99,3.24l0,0.02l9.11,1.47c0.26,0.04,0.45,0.28,0.4,0.54c-0.04,0.25-0.29,0.41-0.55,0.37
	l-10.19-1.64c-0.38-0.06-0.57-0.33-0.52-0.69c0.04-0.23,0.18-0.39,0.45-0.49l9.7-3.13l0-0.02l-8.85-1.43
	C29.34,83.88,29.15,83.67,29.19,83.4 M161.37,84.09c0.21,1.04,0.92,1.67,1.99,1.67c0.2,0,0.41-0.02,0.63-0.07
	c1.61-0.32,1.95-1.35,1.71-2.55l-0.29-1.44l-4.35,0.88L161.37,84.09 M165.56,80.67c0.04-0.01,0.07-0.01,0.11-0.01
	c0.23,0,0.44,0.16,0.48,0.4l0.38,1.9c0.4,1.97-0.19,3.28-2.29,3.7c-1.48,0.3-2.78-0.34-3.34-1.49l-4.17,3.11
	c-0.07,0.07-0.16,0.12-0.26,0.14c-0.21,0.04-0.47-0.11-0.52-0.37c-0.04-0.2,0.03-0.35,0.15-0.46l4.45-3.32l-0.31-1.53l-4.66,0.94
	c-0.26,0.05-0.54-0.11-0.59-0.38c-0.05-0.26,0.13-0.54,0.39-0.59L165.56,80.67 M30.59,78.09c0.06-0.21,0.26-0.35,0.48-0.35
	c0.05,0,0.09,0.01,0.14,0.02l10.01,2.89c0.26,0.07,0.42,0.35,0.35,0.6c-0.07,0.26-0.36,0.42-0.62,0.34l-10.01-2.89
	C30.68,78.64,30.52,78.35,30.59,78.09 M157.6,77.32l5.13-3.65l-0.01-0.02l-6.29,0.4L157.6,77.32z M162.89,72.81c0.04,0,0.07,0,0.1,0
	c0.47,0,0.68,0.21,0.8,0.53c0.13,0.36,0.01,0.63-0.44,0.96l-8.44,6.04c-0.07,0.06-0.14,0.1-0.25,0.14c-0.24,0.08-0.47-0.06-0.55-0.3
	c-0.08-0.24,0-0.46,0.2-0.62l2.54-1.78l-1.28-3.58l-3.08,0.23c-0.33,0.01-0.49-0.13-0.57-0.36c-0.11-0.3,0.1-0.55,0.45-0.57
	L162.89,72.81 M34.56,67.52c0.07-0.17,0.24-0.27,0.42-0.27c0.07,0,0.14,0.01,0.2,0.04l9.62,4.1c0.28,0.12,0.37,0.36,0.25,0.65
	c-0.1,0.23-0.27,0.29-0.53,0.3l-10.48,0.73l-0.01,0.02l8.49,3.62c0.25,0.1,0.37,0.37,0.26,0.62c-0.1,0.23-0.38,0.33-0.62,0.22
	l-9.49-4.05c-0.35-0.15-0.48-0.46-0.33-0.8c0.09-0.21,0.27-0.34,0.55-0.36l10.17-0.7l0.01-0.02l-8.25-3.52
	C34.58,68.02,34.45,67.77,34.56,67.52 M156.82,60.48c0.12-0.07,0.23-0.1,0.34-0.1c0.2,0,0.38,0.11,0.49,0.32
	c0.12,0.2,0.1,0.42-0.05,0.66l-5.62,8.51l0.01,0.01l7.8-4.42c0.23-0.13,0.51-0.08,0.64,0.15c0.12,0.22,0.03,0.5-0.2,0.63l-9.1,5.15
	c-0.26,0.15-0.51,0.08-0.67-0.2c-0.12-0.22-0.06-0.39,0.08-0.6l5.78-8.77l-0.01-0.01l-8.03,4.55c-0.23,0.13-0.52,0.06-0.65-0.17
	c-0.12-0.22-0.03-0.5,0.2-0.63L156.82,60.48 M40.26,57.95c0.26-0.21,0.44-0.31,0.6-0.31c0.08,0,0.15,0.02,0.23,0.07
	c0.2,0.13,0.25,0.36,0.13,0.54c-0.15,0.24-0.75,0.55-1.3,1.39c-1.11,1.71-0.43,3.91,2.4,5.76c2.59,1.69,4.7,1.7,5.92-0.17
	c0.37-0.56,0.61-1.08,0.74-1.5l-3.37-2.19l-1,1.54c-0.14,0.21-0.38,0.25-0.56,0.13c-0.2-0.13-0.26-0.37-0.12-0.58l1.24-1.91
	c0.16-0.25,0.45-0.3,0.68-0.16l3.6,2.35c0.27,0.17,0.42,0.39,0.31,0.86c-0.15,0.68-0.49,1.4-0.9,2.03c-1.37,2.1-3.75,2.61-7.06,0.45
	c-3.39-2.21-4.03-4.9-2.63-7.05C39.45,58.77,39.87,58.25,40.26,57.95 M153.72,55.94c0.09-0.06,0.19-0.09,0.29-0.09
	c0.16,0,0.31,0.07,0.41,0.2c0.16,0.21,0.1,0.53-0.11,0.69l-8.36,6.22c-0.21,0.16-0.53,0.13-0.69-0.09c-0.16-0.21-0.11-0.54,0.1-0.7
	L153.72,55.94 M46.47,50.1c0.09-0.1,0.22-0.15,0.35-0.15c0.13,0,0.25,0.05,0.35,0.14l7.59,7.14c0.19,0.18,0.22,0.5,0.03,0.7
	c-0.18,0.19-0.51,0.2-0.71,0.02l-7.59-7.14C46.29,50.62,46.28,50.29,46.47,50.1 M148.38,49.63c0.09-0.08,0.21-0.13,0.34-0.13
	c0.14,0,0.28,0.05,0.37,0.16c0.18,0.2,0.15,0.52-0.04,0.7l-7.38,6.75l2.42,2.64c0.16,0.17,0.16,0.42-0.04,0.6
	c-0.17,0.16-0.44,0.16-0.6-0.02l-2.74-3c-0.19-0.21-0.18-0.52,0.03-0.71L148.38,49.63 M139.92,48.93c0.43,0.36,0.89,0.55,1.37,0.55
	c0.64,0,1.29-0.34,1.88-1.04c1.13-1.33,0.85-2.46-0.1-3.27l-0.92-0.78l-3.17,3.74L139.92,48.93 M141.62,43.48
	c0.1-0.12,0.24-0.18,0.38-0.18c0.11,0,0.23,0.04,0.33,0.12l1.34,1.14c1.35,1.15,1.83,2.73,0.31,4.52c-1.42,1.67-3.12,1.74-4.57,0.5
	l-0.97-0.82l-2.77,3.26c-0.17,0.2-0.49,0.24-0.69,0.07c-0.2-0.17-0.23-0.5-0.06-0.71L141.62,43.48 M54.52,42.54
	c0.08-0.07,0.18-0.1,0.28-0.1c0.14,0,0.27,0.06,0.37,0.18l6.85,7.89c0.2,0.23,0.18,0.49-0.06,0.69c-0.19,0.16-0.37,0.14-0.61,0.04
	l-9.74-3.92l-0.01,0.01l6.05,6.97c0.18,0.2,0.17,0.5-0.03,0.67c-0.19,0.16-0.48,0.13-0.66-0.07l-6.77-7.79
	c-0.25-0.29-0.23-0.62,0.05-0.86c0.18-0.15,0.39-0.19,0.66-0.08l9.45,3.82l0.01-0.01L54.5,43.2C54.33,43,54.32,42.72,54.52,42.54
	 M137.43,40.33c0.1-0.14,0.26-0.21,0.42-0.21c0.1,0,0.19,0.03,0.28,0.08c0.22,0.15,0.27,0.47,0.11,0.69l-5.91,8.58
	c-0.15,0.22-0.46,0.29-0.68,0.14c-0.22-0.15-0.28-0.48-0.13-0.7L137.43,40.33 M63.12,36.83c0.07-0.04,0.15-0.06,0.23-0.06
	c0.18,0,0.35,0.1,0.44,0.26l5.13,9.07c0.13,0.23,0.06,0.54-0.17,0.68c-0.23,0.13-0.55,0.04-0.68-0.19l-5.13-9.07
	C62.8,37.28,62.89,36.96,63.12,36.83 M126.28,39.81c1.26-2.3,3.04-3.57,4.8-3.57c0.62,0,1.24,0.16,1.84,0.49
	c0.41,0.23,0.94,0.59,1.27,0.96c0.32,0.35,0.43,0.58,0.3,0.81c-0.11,0.21-0.34,0.27-0.55,0.16c-0.16-0.09-0.64-0.75-1.33-1.13
	c-1.88-1.03-3.92-0.02-5.42,2.71c-1.52,2.77-1.27,5.05,0.67,6.11c0.89,0.49,1.63,0.51,1.8,0.61c0.18,0.1,0.24,0.32,0.14,0.51
	c-0.1,0.18-0.26,0.22-0.46,0.18c-0.74-0.1-1.43-0.31-2.11-0.68C124.87,45.68,124.51,43.02,126.28,39.81 M120.5,33.88
	c0.43-1.09,1.3-1.7,2.33-1.7c0.36,0,0.74,0.08,1.13,0.23c0.53,0.21,1.01,0.6,1.26,0.9c0.24,0.26,0.32,0.47,0.25,0.62
	c-0.09,0.23-0.32,0.34-0.49,0.28c-0.26-0.11-0.49-0.7-1.3-1.02c-1-0.4-1.86-0.02-2.25,0.94c-0.97,2.44,2.56,4.29,1.34,7.37
	c-0.69,1.73-2.26,2.16-3.65,1.61c-0.65-0.26-1.33-0.76-1.69-1.27c-0.18-0.27-0.27-0.5-0.19-0.69c0.09-0.22,0.32-0.34,0.55-0.25
	c0.31,0.12,0.59,0.99,1.64,1.41c1.07,0.43,1.98,0,2.4-1.06C122.87,38.66,119.36,36.76,120.5,33.88 M73.33,32
	c0.05-0.02,0.11-0.03,0.16-0.03c0.18,0,0.36,0.12,0.44,0.31l4,9.66c0.12,0.28,0.02,0.52-0.28,0.64c-0.23,0.1-0.39,0.02-0.59-0.15
	l-8-6.81l-0.02,0.01l3.53,8.53c0.1,0.25,0,0.53-0.25,0.63c-0.23,0.1-0.5-0.03-0.6-0.28l-3.94-9.54c-0.15-0.36-0.02-0.66,0.32-0.8
	c0.22-0.09,0.43-0.05,0.65,0.13l7.75,6.62l0.02-0.01l-3.43-8.28C72.99,32.37,73.08,32.1,73.33,32 M116.66,30.62
	c0.06-0.21,0.27-0.36,0.49-0.36c0.04,0,0.09,0.01,0.13,0.02c0.26,0.07,0.4,0.36,0.33,0.62l-2.89,10.01
	c-0.07,0.26-0.35,0.42-0.6,0.35c-0.26-0.07-0.42-0.36-0.34-0.62L116.66,30.62 M83.2,29.16c0.04-0.01,0.08-0.01,0.12-0.01
	c0.19,0,0.36,0.12,0.41,0.31c0.06,0.26-0.07,0.48-0.31,0.54l-2.25,0.57l2.45,9.72c0.06,0.26-0.09,0.52-0.37,0.59
	c-0.26,0.07-0.54-0.09-0.6-0.35l-2.45-9.72l-2.27,0.57c-0.24,0.06-0.47-0.07-0.53-0.33c-0.06-0.23,0.08-0.45,0.32-0.51L83.2,29.16
	 M106.8,38.75c0.26,0.04,0.51,0.06,0.75,0.06c1.71,0,3-1.11,3.52-4.34c0.47-2.92-0.49-4.86-2.72-5.22l-1.45-0.23l-1.53,9.5
	L106.8,38.75 M105.97,28.52c0.04-0.25,0.24-0.42,0.49-0.42c0.03,0,0.06,0,0.09,0.01l2.08,0.33c2.71,0.44,3.98,2.74,3.43,6.16
	c-0.62,3.83-2.36,5.48-5.26,5.01l-2.05-0.33c-0.28-0.04-0.46-0.29-0.42-0.57L105.97,28.52 M91.6,27.88c0.02,0,0.04,0,0.06,0
	c0.22,0,0.39,0.17,0.41,0.38c0.03,0.25-0.11,0.47-0.36,0.5l-3.62,0.46l0.52,4.1l3.12-0.4c0.23-0.03,0.44,0.15,0.47,0.39
	c0.03,0.23-0.13,0.45-0.36,0.48l-3.12,0.4l0.58,4.5l3.65-0.47c0.23-0.03,0.44,0.15,0.47,0.39c0.03,0.23-0.13,0.45-0.36,0.48
	l-4.13,0.53c-0.28,0.04-0.53-0.15-0.56-0.43l-1.31-10.24c-0.04-0.28,0.15-0.52,0.43-0.56L91.6,27.88 M98.59,32.92
	c0.02,0,0.03,0,0.05,0c1.23,0,2.06-0.79,2.08-2.23c0.03-1.64-0.9-2.19-2.12-2.21l-1.47-0.02l-0.07,4.43L98.59,32.92 M96.14,28.1
	c0-0.28,0.22-0.49,0.5-0.49c0,0,0.01,0,0.01,0l1.94,0.03c2.01,0.03,3.16,0.89,3.13,3.03c-0.02,1.51-0.93,2.65-2.17,2.94l2.15,4.74
	c0.05,0.08,0.08,0.19,0.08,0.29c0,0.22-0.21,0.43-0.47,0.43c-0.2,0-0.33-0.11-0.41-0.24l-2.3-5.06l-1.56-0.02l-0.08,4.75
	c0,0.27-0.23,0.5-0.49,0.49c-0.27,0-0.5-0.24-0.49-0.51L96.14,28.1 M104.36,156.77c0.01,0,0.03,0,0.04,0c0.23,0,0.39,0.18,0.41,0.4
	c0.02,0.25-0.13,0.46-0.38,0.49l-3.63,0.32l0.37,4.12l3.13-0.28c0.23-0.02,0.43,0.16,0.46,0.41c0.02,0.23-0.15,0.45-0.38,0.47
	l-3.13,0.28l0.4,4.52l3.67-0.33c0.23-0.02,0.43,0.16,0.46,0.41c0.02,0.23-0.14,0.45-0.38,0.47l-4.15,0.37
	c-0.28,0.03-0.52-0.17-0.54-0.45l-0.91-10.28c-0.03-0.28,0.17-0.52,0.45-0.54L104.36,156.77 M87.95,166.95
	c0.19,0.02,0.37,0.03,0.55,0.03c1.81,0,3.12-1.14,3.5-4.51c0.33-2.94-0.72-4.83-2.96-5.08l-1.46-0.16l-1.08,9.56L87.95,166.95
	 M86.64,156.77c0.03-0.26,0.24-0.44,0.49-0.44c0.02,0,0.04,0,0.06,0l2.09,0.24c2.73,0.31,4.11,2.55,3.72,5.99
	c-0.43,3.86-2.09,5.59-5.02,5.26l-2.06-0.23c-0.28-0.03-0.47-0.27-0.44-0.55L86.64,156.77 M112.62,155.14
	c0.03-0.01,0.07-0.01,0.1-0.01c0.21,0,0.4,0.15,0.45,0.38l2.45,10.16c0.07,0.29-0.07,0.51-0.37,0.59c-0.24,0.06-0.39-0.04-0.56-0.24
	l-6.84-7.97l-0.02,0l2.16,8.98c0.06,0.26-0.08,0.52-0.34,0.58c-0.24,0.06-0.49-0.11-0.55-0.37l-2.41-10.03
	c-0.09-0.37,0.08-0.66,0.44-0.74c0.23-0.05,0.43,0.02,0.62,0.23l6.63,7.74l0.02,0l-2.1-8.72
	C112.23,155.46,112.36,155.2,112.62,155.14 M80.02,155c0.06-0.23,0.26-0.37,0.48-0.37c0.05,0,0.09,0.01,0.14,0.02l3.99,1.08
	c0.24,0.07,0.35,0.3,0.29,0.53c-0.07,0.24-0.28,0.39-0.52,0.33l-3.52-0.95l-1.08,3.99l3.04,0.82c0.23,0.06,0.35,0.3,0.29,0.54
	c-0.06,0.23-0.29,0.37-0.52,0.31l-3.04-0.82l-1.18,4.38l3.55,0.96c0.23,0.06,0.35,0.3,0.29,0.54c-0.06,0.23-0.29,0.37-0.52,0.31
	l-4.02-1.09c-0.27-0.07-0.43-0.34-0.35-0.61L80.02,155 M72.51,154.33c0.42-1.11,1.3-1.73,2.34-1.73c0.35,0,0.72,0.07,1.1,0.21
	c0.53,0.2,1.01,0.58,1.28,0.88c0.24,0.25,0.32,0.46,0.26,0.62c-0.09,0.23-0.31,0.35-0.48,0.28c-0.27-0.1-0.5-0.69-1.32-1
	c-1-0.38-1.86,0-2.24,0.97c-0.94,2.45,2.62,4.26,1.43,7.35c-0.66,1.74-2.23,2.19-3.62,1.66c-0.66-0.25-1.34-0.75-1.71-1.24
	c-0.18-0.27-0.28-0.5-0.2-0.69c0.08-0.22,0.31-0.35,0.55-0.26c0.31,0.12,0.61,0.98,1.65,1.38c1.08,0.41,1.98-0.03,2.39-1.09
	C74.94,159.07,71.4,157.22,72.51,154.33 M121.01,152.29c0.05-0.02,0.1-0.03,0.15-0.03c0.23,0,0.4,0.22,0.43,0.49l0.96,10.64
	c0.03,0.27-0.11,0.56-0.47,0.69c-0.23,0.09-0.59,0.1-0.81-0.21l-6.25-8.65c-0.26-0.37-0.09-0.66,0.18-0.76
	c0.19-0.07,0.45-0.04,0.6,0.17l5.84,8.19l0.02-0.01l-0.97-10.06C120.67,152.52,120.81,152.36,121.01,152.29 M123.28,151.17
	c0.07-0.03,0.14-0.05,0.21-0.05c0.18,0,0.36,0.1,0.45,0.27l4.79,9.25c0.12,0.24,0.04,0.55-0.2,0.67c-0.24,0.12-0.55,0.02-0.68-0.22
	l-4.79-9.25C122.94,151.6,123.04,151.29,123.28,151.17 M65.43,148.33c0.09-0.16,0.25-0.25,0.43-0.25c0.08,0,0.16,0.02,0.24,0.06
	c0.25,0.13,0.33,0.42,0.2,0.66l-3.71,6.97c-0.68,1.27-0.28,2.52,0.93,3.17c1.25,0.67,2.47,0.31,3.16-0.99l3.71-6.97
	c0.13-0.24,0.4-0.33,0.67-0.19c0.24,0.13,0.32,0.42,0.2,0.66l-3.68,6.91c-0.94,1.77-2.69,2.28-4.49,1.32
	c-1.76-0.94-2.28-2.65-1.35-4.4L65.43,148.33 M130.13,153.58l1.29-0.83c1.05-0.68,1.32-1.81,0.53-3.03
	c-0.89-1.38-1.97-1.32-2.99-0.66l-1.24,0.8L130.13,153.58z M128.49,148.34c0.72-0.46,1.39-0.72,2.02-0.72c0.84,0,1.6,0.46,2.27,1.5
	c0.82,1.27,0.7,2.72-0.17,3.65l4.42,2.74c0.09,0.04,0.17,0.11,0.22,0.19c0.12,0.18,0.07,0.47-0.16,0.62
	c-0.17,0.11-0.33,0.1-0.48,0.03l-4.72-2.93l-1.31,0.84l2.57,3.99c0.15,0.22,0.09,0.54-0.13,0.68c-0.22,0.14-0.55,0.07-0.69-0.15
	l-5.62-8.72c-0.15-0.24-0.09-0.54,0.15-0.69L128.49,148.34 M55.75,147.65c1.41-1.91,3.13-2.93,4.74-2.93c0.79,0,1.56,0.25,2.26,0.76
	c0.38,0.28,0.85,0.71,1.12,1.12c0.27,0.39,0.35,0.63,0.19,0.84c-0.14,0.19-0.37,0.22-0.56,0.08c-0.15-0.11-0.53-0.83-1.16-1.3
	c-1.72-1.27-3.88-0.55-5.74,1.96c-1.88,2.54-1.94,4.83-0.16,6.15c0.82,0.61,1.54,0.73,1.7,0.85c0.16,0.12,0.2,0.35,0.07,0.53
	c-0.12,0.16-0.28,0.19-0.48,0.12c-0.72-0.2-1.38-0.5-2-0.96C53.56,153.28,53.57,150.6,55.75,147.65 M136.89,149.57
	c1.38,1.59,2.75,2.41,3.93,2.41c0.6,0,1.17-0.21,1.66-0.64c1.45-1.26,1.1-3.37-0.99-5.77c-2.09-2.4-4.13-3.04-5.58-1.77
	C134.45,145.06,134.8,147.17,136.89,149.57 M135.37,143.13c0.69-0.6,1.47-0.89,2.29-0.89c1.45,0,3.06,0.9,4.58,2.65
	c2.37,2.73,2.68,5.47,0.8,7.11c-1.92,1.67-4.46,1.04-6.87-1.74C133.78,147.53,133.47,144.78,135.37,143.13 M47.83,146.84
	c0.5,0.5,1.1,0.75,1.77,0.75c1.15,0,2.5-0.73,3.91-2.15c2.24-2.25,2.73-4.34,1.37-5.69c-1.38-1.37-3.46-0.87-5.7,1.39
	C46.94,143.39,46.45,145.47,47.83,146.84 M48.44,140.46c1.55-1.55,3.15-2.35,4.57-2.35c0.93,0,1.78,0.34,2.49,1.05
	c1.78,1.77,1.3,4.41-1.26,6.98c-2.55,2.56-5.27,3.07-7.03,1.31C45.4,145.65,45.84,143.07,48.44,140.46 M143.93,134.54
	c0.09-0.1,0.21-0.15,0.33-0.15c0.11,0,0.23,0.04,0.33,0.12l7.92,6.82c0.23,0.2,0.25,0.46,0.04,0.7c-0.16,0.19-0.34,0.19-0.6,0.13
	l-10.21-2.47l-0.01,0.01l7,6.02c0.2,0.17,0.24,0.47,0.06,0.67c-0.16,0.19-0.46,0.2-0.66,0.03l-7.82-6.73
	c-0.29-0.25-0.32-0.58-0.08-0.86c0.15-0.18,0.36-0.24,0.64-0.18l9.91,2.41l0.01-0.01l-6.8-5.85
	C143.8,135.02,143.75,134.74,143.93,134.54 M48.82,132.16c0.09-0.07,0.2-0.1,0.3-0.1c0.15,0,0.3,0.07,0.4,0.2l2.34,3.11
	c0.13,0.17,0.09,0.43-0.09,0.57c-0.21,0.16-0.47,0.12-0.6-0.05l-2.05-2.73l-3.56,2.67l1.83,2.43c0.14,0.19,0.1,0.43-0.1,0.58
	c-0.19,0.14-0.45,0.13-0.59-0.06l-1.83-2.43l-3.75,2.81c-0.21,0.16-0.53,0.13-0.69-0.09c-0.16-0.21-0.11-0.54,0.1-0.7L48.82,132.16
	 M149.55,125.91c0.14-0.23,0.32-0.35,0.53-0.35c0.12,0,0.25,0.04,0.39,0.12l8.84,5.29c0.22,0.13,0.28,0.4,0.16,0.6
	c-0.13,0.21-0.39,0.27-0.61,0.14l-8.02-4.8l-0.01,0.01l6.43,7.01c0.25,0.27,0.28,0.54,0.14,0.77c-0.15,0.24-0.42,0.34-0.76,0.26
	l-9.16-2.32l-0.01,0.01l7.96,4.77c0.22,0.13,0.29,0.39,0.17,0.59c-0.12,0.2-0.39,0.27-0.61,0.14l-8.81-5.27
	c-0.37-0.22-0.48-0.56-0.26-0.93c0.16-0.27,0.43-0.42,0.67-0.36l9.76,2.49l0.01-0.01l-6.82-7.43
	C149.39,126.46,149.38,126.18,149.55,125.91 M152.7,118.9c0.07-0.17,0.22-0.26,0.38-0.26c0.06,0,0.12,0.01,0.18,0.04
	c0.23,0.1,0.35,0.33,0.26,0.56l-1.39,3.37l3.82,1.57l1.2-2.91c0.09-0.22,0.34-0.31,0.58-0.22c0.22,0.09,0.33,0.34,0.24,0.55
	l-1.2,2.91l4.2,1.72l1.4-3.4c0.09-0.22,0.34-0.31,0.58-0.22c0.22,0.09,0.33,0.34,0.24,0.55l-1.58,3.85
	c-0.11,0.26-0.39,0.38-0.65,0.27l-9.55-3.92c-0.26-0.11-0.38-0.39-0.27-0.65L152.7,118.9 M154.99,110.83
	c0.05-0.21,0.24-0.34,0.45-0.34c0.04,0,0.08,0.01,0.12,0.01l10.16,2.47c0.29,0.07,0.43,0.29,0.35,0.6
	c-0.06,0.24-0.22,0.33-0.47,0.38l-10.22,2.44l0,0.02l8.97,2.18c0.26,0.06,0.42,0.31,0.36,0.57c-0.06,0.24-0.32,0.39-0.58,0.32
	l-10.03-2.44c-0.37-0.09-0.55-0.37-0.46-0.73c0.06-0.23,0.21-0.38,0.49-0.45l9.92-2.36l0-0.02l-8.71-2.12
	C155.1,111.32,154.93,111.09,154.99,110.83 M156.24,102.82c0.03-0.23,0.2-0.39,0.42-0.39c0.02,0,0.03,0,0.05,0
	c0.26,0.03,0.43,0.23,0.4,0.48l-0.26,2.31l9.96,1.12c0.27,0.03,0.46,0.27,0.43,0.55c-0.03,0.27-0.27,0.47-0.54,0.44l-9.96-1.12
	l-0.26,2.33c-0.03,0.25-0.23,0.41-0.5,0.38c-0.23-0.03-0.39-0.23-0.37-0.48L156.24,102.82"/>
</svg>
