<svg width="169" height="50" viewBox="0 0 169 50" fill="none" xmlns="http://www.w3.org/2000/svg">
<path d="M140.543 44.1176H22.4749C10.0887 44.1176 0 34.2157 0 22.0588C0 9.90196 10.0887 0 22.4749 0H140.543C152.929 0 163.018 9.90196 163.018 22.0588C162.918 34.2157 152.929 44.1176 140.543 44.1176Z" fill="#F09413"/>
<path d="M146.425 50H28.3574C15.9713 50 5.98242 40.196 5.98242 27.9411C5.98242 15.7843 16.0711 5.88232 28.4573 5.88232H146.525C158.912 5.88232 169 15.7843 169 27.9411C168.9 40.196 158.812 50 146.425 50Z" fill="#FBDA19"/>
<path d="M43.086 29.508V32.982C42.954 33.018 42.768 33.048 42.528 33.072C42.288 33.108 42.036 33.126 41.772 33.126C41.208 33.126 40.812 33.03 40.584 32.838C40.368 32.646 40.26 32.298 40.26 31.794V23.064C40.26 22.824 40.32 22.638 40.44 22.506C40.572 22.374 40.758 22.272 40.998 22.2C41.19 22.128 41.406 22.068 41.646 22.02C41.898 21.972 42.15 21.93 42.402 21.894C42.666 21.858 42.924 21.834 43.176 21.822C43.44 21.81 43.686 21.804 43.914 21.804C45.546 21.804 46.782 22.152 47.622 22.848C48.462 23.532 48.882 24.474 48.882 25.674C48.882 26.25 48.774 26.778 48.558 27.258C48.354 27.726 48.054 28.128 47.658 28.464C47.262 28.8 46.776 29.058 46.2 29.238C45.636 29.418 44.994 29.508 44.274 29.508H43.086ZM44.094 27.294C44.682 27.294 45.15 27.162 45.498 26.898C45.846 26.622 46.02 26.214 46.02 25.674C46.02 24.606 45.384 24.072 44.112 24.072C43.896 24.072 43.704 24.078 43.536 24.09C43.38 24.102 43.224 24.12 43.068 24.144V27.294H44.094ZM52.1603 33.036C51.7043 33.036 51.3383 32.904 51.0623 32.64C50.7983 32.364 50.6663 31.998 50.6663 31.542V22.056C50.7983 22.032 50.9843 22.002 51.2243 21.966C51.4763 21.93 51.7223 21.912 51.9623 21.912C52.5023 21.912 52.8923 22.002 53.1323 22.182C53.3723 22.362 53.4923 22.716 53.4923 23.244V30.75H57.8123C57.8843 30.87 57.9503 31.026 58.0103 31.218C58.0823 31.41 58.1183 31.62 58.1183 31.848C58.1183 32.244 58.0283 32.544 57.8483 32.748C57.6803 32.94 57.4463 33.036 57.1463 33.036H52.1603ZM66.1014 30.606H62.5734C62.4414 31.038 62.3154 31.464 62.1954 31.884C62.0874 32.304 61.9914 32.676 61.9074 33C61.7514 33.048 61.5894 33.09 61.4214 33.126C61.2534 33.162 61.0494 33.18 60.8094 33.18C60.2814 33.18 59.8794 33.09 59.6034 32.91C59.3394 32.718 59.2074 32.448 59.2074 32.1C59.2074 31.932 59.2314 31.77 59.2794 31.614C59.3274 31.458 59.3814 31.278 59.4414 31.074C59.5254 30.75 59.6454 30.348 59.8014 29.868C59.9574 29.388 60.1254 28.872 60.3054 28.32C60.4974 27.756 60.6954 27.18 60.8994 26.592C61.1034 26.004 61.3014 25.446 61.4934 24.918C61.6854 24.378 61.8594 23.886 62.0154 23.442C62.1714 22.998 62.3034 22.644 62.4114 22.38C62.5914 22.272 62.8674 22.17 63.2394 22.074C63.6234 21.978 64.0014 21.93 64.3734 21.93C64.9134 21.93 65.3874 22.008 65.7954 22.164C66.2154 22.308 66.4854 22.554 66.6054 22.902C66.8334 23.538 67.0794 24.276 67.3434 25.116C67.6074 25.956 67.8714 26.82 68.1354 27.708C68.4114 28.596 68.6754 29.472 68.9274 30.336C69.1794 31.2 69.4014 31.974 69.5934 32.658C69.4614 32.814 69.2634 32.94 68.9994 33.036C68.7474 33.132 68.4414 33.18 68.0814 33.18C67.5654 33.18 67.1994 33.09 66.9834 32.91C66.7794 32.73 66.6294 32.448 66.5334 32.064L66.1014 30.606ZM64.3554 24.45C64.1874 24.99 63.9774 25.608 63.7254 26.304C63.4854 26.988 63.2574 27.69 63.0414 28.41H65.6154C65.4114 27.654 65.2014 26.934 64.9854 26.25C64.7814 25.554 64.6074 24.954 64.4634 24.45H64.3554ZM79.1365 23.208C79.1365 23.352 79.0825 23.556 78.9745 23.82C78.8785 24.084 78.7045 24.45 78.4525 24.918C78.2005 25.386 77.8585 25.98 77.4265 26.7C77.0065 27.42 76.4725 28.302 75.8245 29.346V32.982C75.6925 33.018 75.5065 33.048 75.2665 33.072C75.0385 33.108 74.7985 33.126 74.5465 33.126C73.9825 33.126 73.5925 33.03 73.3765 32.838C73.1605 32.646 73.0525 32.31 73.0525 31.83V29.328C72.7405 28.872 72.4045 28.362 72.0445 27.798C71.6845 27.222 71.3305 26.646 70.9825 26.07C70.6345 25.482 70.3105 24.906 70.0105 24.342C69.7105 23.778 69.4705 23.274 69.2905 22.83C69.4225 22.626 69.6085 22.44 69.8485 22.272C70.1005 22.104 70.4065 22.02 70.7665 22.02C71.1865 22.02 71.5285 22.11 71.7925 22.29C72.0565 22.458 72.3085 22.782 72.5485 23.262C72.5725 23.298 72.6325 23.412 72.7285 23.604C72.8245 23.784 72.9325 24 73.0525 24.252C73.1845 24.492 73.3225 24.756 73.4665 25.044C73.6105 25.332 73.7425 25.602 73.8625 25.854C73.9945 26.094 74.1085 26.304 74.2045 26.484C74.3005 26.664 74.3605 26.772 74.3845 26.808H74.4745C74.6665 26.412 74.8405 26.034 74.9965 25.674C75.1645 25.314 75.3265 24.96 75.4825 24.612C75.6385 24.252 75.7945 23.892 75.9505 23.532C76.1185 23.16 76.2925 22.758 76.4725 22.326C76.6645 22.23 76.8745 22.158 77.1025 22.11C77.3425 22.05 77.5645 22.02 77.7685 22.02C78.1525 22.02 78.4765 22.122 78.7405 22.326C79.0045 22.53 79.1365 22.824 79.1365 23.208ZM90.324 30.606H86.796C86.664 31.038 86.538 31.464 86.418 31.884C86.31 32.304 86.214 32.676 86.13 33C85.974 33.048 85.812 33.09 85.644 33.126C85.476 33.162 85.272 33.18 85.032 33.18C84.504 33.18 84.102 33.09 83.826 32.91C83.562 32.718 83.43 32.448 83.43 32.1C83.43 31.932 83.454 31.77 83.502 31.614C83.55 31.458 83.604 31.278 83.664 31.074C83.748 30.75 83.868 30.348 84.024 29.868C84.18 29.388 84.348 28.872 84.528 28.32C84.72 27.756 84.918 27.18 85.122 26.592C85.326 26.004 85.524 25.446 85.716 24.918C85.908 24.378 86.082 23.886 86.238 23.442C86.394 22.998 86.526 22.644 86.634 22.38C86.814 22.272 87.09 22.17 87.462 22.074C87.846 21.978 88.224 21.93 88.596 21.93C89.136 21.93 89.61 22.008 90.018 22.164C90.438 22.308 90.708 22.554 90.828 22.902C91.056 23.538 91.302 24.276 91.566 25.116C91.83 25.956 92.094 26.82 92.358 27.708C92.634 28.596 92.898 29.472 93.15 30.336C93.402 31.2 93.624 31.974 93.816 32.658C93.684 32.814 93.486 32.94 93.222 33.036C92.97 33.132 92.664 33.18 92.304 33.18C91.788 33.18 91.422 33.09 91.206 32.91C91.002 32.73 90.852 32.448 90.756 32.064L90.324 30.606ZM88.578 24.45C88.41 24.99 88.2 25.608 87.948 26.304C87.708 26.988 87.48 27.69 87.264 28.41H89.838C89.634 27.654 89.424 26.934 89.208 26.25C89.004 25.554 88.83 24.954 88.686 24.45H88.578ZM104.91 31.344C104.91 31.692 104.844 31.95 104.712 32.118C104.58 32.286 104.37 32.454 104.082 32.622C103.914 32.718 103.71 32.808 103.47 32.892C103.23 32.976 102.96 33.048 102.66 33.108C102.372 33.168 102.066 33.216 101.742 33.252C101.43 33.288 101.118 33.306 100.806 33.306C99.942 33.306 99.138 33.198 98.394 32.982C97.662 32.754 97.02 32.406 96.468 31.938C95.916 31.47 95.484 30.876 95.172 30.156C94.86 29.436 94.704 28.572 94.704 27.564C94.704 26.616 94.86 25.782 95.172 25.062C95.496 24.33 95.928 23.724 96.468 23.244C97.02 22.752 97.662 22.386 98.394 22.146C99.138 21.894 99.936 21.768 100.788 21.768C101.904 21.768 102.792 21.942 103.452 22.29C104.112 22.638 104.442 23.082 104.442 23.622C104.442 23.898 104.37 24.144 104.226 24.36C104.082 24.564 103.914 24.726 103.722 24.846C103.422 24.654 103.044 24.474 102.588 24.306C102.144 24.138 101.616 24.054 101.004 24.054C100.5 24.054 100.038 24.138 99.618 24.306C99.21 24.462 98.856 24.69 98.556 24.99C98.256 25.29 98.022 25.656 97.854 26.088C97.686 26.52 97.602 27.006 97.602 27.546C97.602 28.134 97.68 28.65 97.836 29.094C98.004 29.526 98.232 29.886 98.52 30.174C98.808 30.462 99.15 30.678 99.546 30.822C99.954 30.966 100.392 31.038 100.86 31.038C101.148 31.038 101.406 31.008 101.634 30.948C101.874 30.888 102.06 30.828 102.192 30.768V28.734H100.122C100.05 28.614 99.984 28.458 99.924 28.266C99.864 28.074 99.834 27.87 99.834 27.654C99.834 27.27 99.924 26.988 100.104 26.808C100.284 26.628 100.518 26.538 100.806 26.538H103.83C104.166 26.538 104.43 26.634 104.622 26.826C104.814 27.006 104.91 27.264 104.91 27.6V31.344ZM113.369 30.606H109.841C109.709 31.038 109.583 31.464 109.463 31.884C109.355 32.304 109.259 32.676 109.175 33C109.019 33.048 108.857 33.09 108.689 33.126C108.521 33.162 108.317 33.18 108.077 33.18C107.549 33.18 107.147 33.09 106.871 32.91C106.607 32.718 106.475 32.448 106.475 32.1C106.475 31.932 106.499 31.77 106.547 31.614C106.595 31.458 106.649 31.278 106.709 31.074C106.793 30.75 106.913 30.348 107.069 29.868C107.225 29.388 107.393 28.872 107.573 28.32C107.765 27.756 107.963 27.18 108.167 26.592C108.371 26.004 108.569 25.446 108.761 24.918C108.953 24.378 109.127 23.886 109.283 23.442C109.439 22.998 109.571 22.644 109.679 22.38C109.859 22.272 110.135 22.17 110.507 22.074C110.891 21.978 111.269 21.93 111.641 21.93C112.181 21.93 112.655 22.008 113.063 22.164C113.483 22.308 113.753 22.554 113.873 22.902C114.101 23.538 114.347 24.276 114.611 25.116C114.875 25.956 115.139 26.82 115.403 27.708C115.679 28.596 115.943 29.472 116.195 30.336C116.447 31.2 116.669 31.974 116.861 32.658C116.729 32.814 116.531 32.94 116.267 33.036C116.015 33.132 115.709 33.18 115.349 33.18C114.833 33.18 114.467 33.09 114.251 32.91C114.047 32.73 113.897 32.448 113.801 32.064L113.369 30.606ZM111.623 24.45C111.455 24.99 111.245 25.608 110.993 26.304C110.753 26.988 110.525 27.69 110.309 28.41H112.883C112.679 27.654 112.469 26.934 112.253 26.25C112.049 25.554 111.875 24.954 111.731 24.45H111.623ZM119.977 33.126C119.413 33.126 119.017 33.03 118.789 32.838C118.573 32.646 118.465 32.298 118.465 31.794V22.056C118.597 22.032 118.783 22.002 119.023 21.966C119.275 21.93 119.527 21.912 119.779 21.912C120.319 21.912 120.703 22.002 120.931 22.182C121.171 22.362 121.291 22.716 121.291 23.244V32.982C121.159 33.018 120.973 33.048 120.733 33.072C120.493 33.108 120.241 33.126 119.977 33.126ZM133.457 32.658C133.289 32.802 133.061 32.916 132.773 33C132.485 33.096 132.143 33.144 131.747 33.144C131.339 33.144 130.955 33.078 130.595 32.946C130.235 32.814 129.935 32.514 129.695 32.046L127.607 28.014C127.403 27.63 127.211 27.246 127.031 26.862C126.863 26.478 126.695 26.076 126.527 25.656L126.401 25.692C126.461 26.412 126.497 27.102 126.509 27.762C126.521 28.41 126.527 29.04 126.527 29.652V33C126.407 33.024 126.227 33.048 125.987 33.072C125.759 33.108 125.519 33.126 125.267 33.126C124.727 33.126 124.349 33.036 124.133 32.856C123.917 32.664 123.809 32.328 123.809 31.848V22.578C123.953 22.374 124.181 22.218 124.493 22.11C124.817 21.99 125.159 21.93 125.519 21.93C125.939 21.93 126.323 21.996 126.671 22.128C127.031 22.26 127.331 22.554 127.571 23.01L129.677 27.06C129.881 27.444 130.067 27.828 130.235 28.212C130.415 28.596 130.589 28.998 130.757 29.418L130.829 29.4C130.769 28.596 130.733 27.834 130.721 27.114C130.721 26.394 130.721 25.704 130.721 25.044V22.056C130.841 22.032 131.015 22.002 131.243 21.966C131.483 21.93 131.735 21.912 131.999 21.912C132.539 21.912 132.917 22.008 133.133 22.2C133.349 22.38 133.457 22.71 133.457 23.19V32.658Z" fill="#2F253F"/>
</svg>
