<svg width="169" height="50" viewBox="0 0 169 50" fill="none" xmlns="http://www.w3.org/2000/svg">
<g clip-path="url(#clip0)">
<path d="M140.534 44.1176H22.4734C10.0881 44.1176 0 34.2157 0 22.0588C0 9.90196 10.0881 0 22.4734 0H140.534C152.919 0 163.007 9.90196 163.007 22.0588C162.907 34.2157 152.919 44.1176 140.534 44.1176Z" fill="#F09413"/>
<path d="M146.527 50H28.4663C16.081 50 6.09277 40.196 6.09277 27.9411C6.09277 15.7843 16.1808 5.88232 28.5662 5.88232H146.626C159.012 5.88232 169.1 15.7843 169.1 27.9411C169 40.196 158.912 50 146.527 50Z" fill="#FBDA19"/>
<path d="M66.5111 32.5122C67.1471 32.5122 67.5971 32.4042 67.8611 32.1882C68.1371 31.9602 68.2751 31.6902 68.2751 31.3782C68.2751 31.0902 68.1671 30.8622 67.9511 30.6942C67.7471 30.5142 67.4351 30.3582 67.0151 30.2262L66.0971 29.9382C65.5931 29.7822 65.1371 29.6142 64.7291 29.4342C64.3211 29.2422 63.9731 29.0202 63.6851 28.7682C63.3971 28.5042 63.1691 28.1982 63.0011 27.8502C62.8451 27.4902 62.7671 27.0582 62.7671 26.5542C62.7671 25.5462 63.1451 24.7482 63.9011 24.1602C64.6691 23.5722 65.7311 23.2782 67.0871 23.2782C67.6031 23.2782 68.0771 23.3142 68.5091 23.3862C68.9531 23.4582 69.3311 23.5722 69.6431 23.7282C69.9551 23.8722 70.2011 24.0522 70.3811 24.2682C70.5611 24.4842 70.6511 24.7362 70.6511 25.0242C70.6511 25.3002 70.5791 25.5462 70.4351 25.7622C70.3031 25.9662 70.1471 26.1402 69.9671 26.2842C69.6911 26.0922 69.3251 25.9302 68.8691 25.7982C68.4131 25.6662 67.9151 25.6002 67.3751 25.6002C66.7991 25.6002 66.3731 25.6902 66.0971 25.8702C65.8211 26.0502 65.6831 26.2782 65.6831 26.5542C65.6831 26.7942 65.7731 26.9802 65.9531 27.1122C66.1331 27.2322 66.4151 27.3582 66.7991 27.4902L67.7711 27.8142C68.3351 28.0062 68.8271 28.2162 69.2471 28.4442C69.6791 28.6602 70.0391 28.9122 70.3271 29.2002C70.6151 29.4762 70.8311 29.8002 70.9751 30.1722C71.1191 30.5322 71.1911 30.9462 71.1911 31.4142C71.1911 31.9182 71.0891 32.3802 70.8851 32.8002C70.6931 33.2082 70.3991 33.5622 70.0031 33.8622C69.6191 34.1622 69.1391 34.3962 68.5631 34.5642C67.9991 34.7322 67.3451 34.8162 66.6011 34.8162C66.0491 34.8162 65.5391 34.7682 65.0711 34.6722C64.6031 34.5882 64.1951 34.4622 63.8471 34.2942C63.5111 34.1262 63.2411 33.9222 63.0371 33.6822C62.8451 33.4302 62.7491 33.1482 62.7491 32.8362C62.7491 32.5122 62.8391 32.2422 63.0191 32.0262C63.2111 31.8102 63.4211 31.6362 63.6491 31.5042C63.9731 31.7682 64.3751 32.0022 64.8551 32.2062C65.3471 32.4102 65.8991 32.5122 66.5111 32.5122ZM77.8732 25.8702V34.4922C77.7412 34.5282 77.5552 34.5582 77.3152 34.5822C77.0752 34.6182 76.8232 34.6362 76.5592 34.6362C75.9952 34.6362 75.5992 34.5402 75.3712 34.3482C75.1432 34.1562 75.0292 33.8082 75.0292 33.3042V25.8702H72.2032C72.1312 25.7502 72.0592 25.5942 71.9872 25.4022C71.9272 25.2102 71.8972 25.0002 71.8972 24.7722C71.8972 24.3642 71.9872 24.0702 72.1672 23.8902C72.3472 23.6982 72.5932 23.6022 72.9052 23.6022H80.7712C80.8552 23.7222 80.9272 23.8782 80.9872 24.0702C81.0472 24.2622 81.0772 24.4722 81.0772 24.7002C81.0772 25.0962 80.9872 25.3902 80.8072 25.5822C80.6272 25.7742 80.3812 25.8702 80.0692 25.8702H77.8732ZM88.057 32.1162H84.529C84.397 32.5482 84.271 32.9742 84.151 33.3942C84.043 33.8142 83.947 34.1862 83.863 34.5102C83.707 34.5582 83.545 34.6002 83.377 34.6362C83.209 34.6722 83.005 34.6902 82.765 34.6902C82.237 34.6902 81.835 34.6002 81.559 34.4202C81.295 34.2282 81.163 33.9582 81.163 33.6102C81.163 33.4422 81.187 33.2802 81.235 33.1242C81.283 32.9682 81.337 32.7882 81.397 32.5842C81.481 32.2602 81.601 31.8582 81.757 31.3782C81.913 30.8982 82.081 30.3822 82.261 29.8302C82.453 29.2662 82.651 28.6902 82.855 28.1022C83.059 27.5142 83.257 26.9562 83.449 26.4282C83.641 25.8882 83.815 25.3962 83.971 24.9522C84.127 24.5082 84.259 24.1542 84.367 23.8902C84.547 23.7822 84.823 23.6802 85.195 23.5842C85.579 23.4882 85.957 23.4402 86.329 23.4402C86.869 23.4402 87.343 23.5182 87.751 23.6742C88.171 23.8182 88.441 24.0642 88.561 24.4122C88.789 25.0482 89.035 25.7862 89.299 26.6262C89.563 27.4662 89.827 28.3302 90.091 29.2182C90.367 30.1062 90.631 30.9822 90.883 31.8462C91.135 32.7102 91.357 33.4842 91.549 34.1682C91.417 34.3242 91.219 34.4502 90.955 34.5462C90.703 34.6422 90.397 34.6902 90.037 34.6902C89.521 34.6902 89.155 34.6002 88.939 34.4202C88.735 34.2402 88.585 33.9582 88.489 33.5742L88.057 32.1162ZM86.311 25.9602C86.143 26.5002 85.933 27.1182 85.681 27.8142C85.441 28.4982 85.213 29.2002 84.997 29.9202H87.571C87.367 29.1642 87.157 28.4442 86.941 27.7602C86.737 27.0642 86.563 26.4642 86.419 25.9602H86.311ZM101.865 27.1122C101.865 27.8082 101.679 28.4322 101.307 28.9842C100.947 29.5362 100.455 29.9742 99.8311 30.2982C100.323 30.9462 100.791 31.5582 101.235 32.1342C101.691 32.6982 102.027 33.1542 102.243 33.5022C102.135 33.8862 101.931 34.1802 101.631 34.3842C101.343 34.5762 101.025 34.6722 100.677 34.6722C100.221 34.6722 99.8731 34.5762 99.6331 34.3842C99.3931 34.1802 99.1651 33.9042 98.9491 33.5562L97.2211 30.8742H95.9791V34.4922C95.8471 34.5282 95.6611 34.5582 95.4211 34.5822C95.1811 34.6182 94.9291 34.6362 94.6651 34.6362C94.1011 34.6362 93.7051 34.5402 93.4771 34.3482C93.2611 34.1562 93.1531 33.8082 93.1531 33.3042V24.5742C93.1531 24.3342 93.2131 24.1482 93.3331 24.0162C93.4651 23.8842 93.6511 23.7822 93.8911 23.7102C94.2751 23.5662 94.7371 23.4642 95.2771 23.4042C95.8171 23.3442 96.3811 23.3142 96.9691 23.3142C98.6011 23.3142 99.8251 23.6562 100.641 24.3402C101.457 25.0122 101.865 25.9362 101.865 27.1122ZM97.0591 28.6962C97.6351 28.6962 98.1031 28.5702 98.4631 28.3182C98.8231 28.0542 99.0031 27.6582 99.0031 27.1302C99.0031 26.0982 98.3131 25.5822 96.9331 25.5822C96.7411 25.5822 96.5671 25.5942 96.4111 25.6182C96.2551 25.6302 96.0991 25.6482 95.9431 25.6722V28.6962H97.0591ZM108.846 25.8702V34.4922C108.714 34.5282 108.528 34.5582 108.288 34.5822C108.048 34.6182 107.796 34.6362 107.532 34.6362C106.968 34.6362 106.572 34.5402 106.344 34.3482C106.116 34.1562 106.002 33.8082 106.002 33.3042V25.8702H103.176C103.104 25.7502 103.032 25.5942 102.96 25.4022C102.9 25.2102 102.87 25.0002 102.87 24.7722C102.87 24.3642 102.96 24.0702 103.14 23.8902C103.32 23.6982 103.566 23.6022 103.878 23.6022H111.744C111.828 23.7222 111.9 23.8782 111.96 24.0702C112.02 24.2622 112.05 24.4722 112.05 24.7002C112.05 25.0962 111.96 25.3902 111.78 25.5822C111.6 25.7742 111.354 25.8702 111.042 25.8702H108.846Z" fill="#2F253F"/>
</g>
<defs>
<clipPath id="clip0">
<rect width="169" height="50" fill="white"/>
</clipPath>
</defs>
</svg>
