<svg width="169" height="50" viewBox="0 0 169 50" fill="none" xmlns="http://www.w3.org/2000/svg">
<path d="M140.543 44.1176H22.4749C10.0887 44.1176 0 34.2157 0 22.0588C0 9.90196 10.0887 0 22.4749 0H140.543C152.929 0 163.018 9.90196 163.018 22.0588C162.918 34.2157 152.929 44.1176 140.543 44.1176Z" fill="#F09413"/>
<path d="M146.425 50H28.3574C15.9713 50 5.98242 40.196 5.98242 27.9411C5.98242 15.7843 16.0711 5.88232 28.4573 5.88232H146.525C158.912 5.88232 169 15.7843 169 27.9411C168.9 40.196 158.812 50 146.425 50Z" fill="#FBDA19"/>
<path d="M61.536 32.002C62.172 32.002 62.622 31.894 62.886 31.678C63.162 31.45 63.3 31.18 63.3 30.868C63.3 30.58 63.192 30.352 62.976 30.184C62.772 30.004 62.46 29.848 62.04 29.716L61.122 29.428C60.618 29.272 60.162 29.104 59.754 28.924C59.346 28.732 58.998 28.51 58.71 28.258C58.422 27.994 58.194 27.688 58.026 27.34C57.87 26.98 57.792 26.548 57.792 26.044C57.792 25.036 58.17 24.238 58.926 23.65C59.694 23.062 60.756 22.768 62.112 22.768C62.628 22.768 63.102 22.804 63.534 22.876C63.978 22.948 64.356 23.062 64.668 23.218C64.98 23.362 65.226 23.542 65.406 23.758C65.586 23.974 65.676 24.226 65.676 24.514C65.676 24.79 65.604 25.036 65.46 25.252C65.328 25.456 65.172 25.63 64.992 25.774C64.716 25.582 64.35 25.42 63.894 25.288C63.438 25.156 62.94 25.09 62.4 25.09C61.824 25.09 61.398 25.18 61.122 25.36C60.846 25.54 60.708 25.768 60.708 26.044C60.708 26.284 60.798 26.47 60.978 26.602C61.158 26.722 61.44 26.848 61.824 26.98L62.796 27.304C63.36 27.496 63.852 27.706 64.272 27.934C64.704 28.15 65.064 28.402 65.352 28.69C65.64 28.966 65.856 29.29 66 29.662C66.144 30.022 66.216 30.436 66.216 30.904C66.216 31.408 66.114 31.87 65.91 32.29C65.718 32.698 65.424 33.052 65.028 33.352C64.644 33.652 64.164 33.886 63.588 34.054C63.024 34.222 62.37 34.306 61.626 34.306C61.074 34.306 60.564 34.258 60.096 34.162C59.628 34.078 59.22 33.952 58.872 33.784C58.536 33.616 58.266 33.412 58.062 33.172C57.87 32.92 57.774 32.638 57.774 32.326C57.774 32.002 57.864 31.732 58.044 31.516C58.236 31.3 58.446 31.126 58.674 30.994C58.998 31.258 59.4 31.492 59.88 31.696C60.372 31.9 60.924 32.002 61.536 32.002ZM72.7662 34.306C72.0222 34.306 71.3562 34.204 70.7682 34C70.1922 33.796 69.7002 33.508 69.2922 33.136C68.8842 32.764 68.5722 32.32 68.3562 31.804C68.1402 31.276 68.0322 30.688 68.0322 30.04V23.056C68.1642 23.032 68.3502 23.002 68.5902 22.966C68.8422 22.93 69.0942 22.912 69.3462 22.912C69.8862 22.912 70.2702 23.002 70.4982 23.182C70.7382 23.362 70.8582 23.716 70.8582 24.244V29.986C70.8582 30.634 71.0322 31.138 71.3802 31.498C71.7402 31.846 72.2022 32.02 72.7662 32.02C73.3422 32.02 73.8042 31.846 74.1522 31.498C74.5122 31.138 74.6922 30.634 74.6922 29.986V23.056C74.8242 23.032 75.0102 23.002 75.2502 22.966C75.5022 22.93 75.7542 22.912 76.0062 22.912C76.5462 22.912 76.9302 23.002 77.1582 23.182C77.3982 23.362 77.5182 23.716 77.5182 24.244V30.04C77.5182 30.688 77.4102 31.276 77.1942 31.804C76.9782 32.32 76.6662 32.764 76.2582 33.136C75.8502 33.508 75.3522 33.796 74.7642 34C74.1762 34.204 73.5102 34.306 72.7662 34.306ZM88.7166 25.918C88.7166 26.458 88.5666 26.926 88.2666 27.322C87.9786 27.706 87.5586 28.006 87.0066 28.222C87.7026 28.45 88.2246 28.786 88.5726 29.23C88.9206 29.674 89.0946 30.208 89.0946 30.832C89.0946 31.996 88.6626 32.86 87.7986 33.424C86.9466 33.988 85.7106 34.27 84.0906 34.27C83.8746 34.27 83.6286 34.264 83.3526 34.252C83.0886 34.24 82.8126 34.216 82.5246 34.18C82.2486 34.156 81.9666 34.114 81.6786 34.054C81.4026 34.006 81.1506 33.94 80.9226 33.856C80.2986 33.628 79.9866 33.22 79.9866 32.632V24.064C79.9866 23.824 80.0466 23.638 80.1666 23.506C80.2986 23.374 80.4846 23.272 80.7246 23.2C81.1206 23.068 81.6126 22.972 82.2006 22.912C82.7886 22.84 83.3946 22.804 84.0186 22.804C85.5186 22.804 86.6766 23.062 87.4926 23.578C88.3086 24.082 88.7166 24.862 88.7166 25.918ZM86.2146 30.706C86.2146 29.854 85.6686 29.428 84.5766 29.428H82.7226V31.948C82.9146 31.996 83.1546 32.032 83.4426 32.056C83.7306 32.08 84.0066 32.092 84.2706 32.092C84.8466 32.092 85.3146 31.984 85.6746 31.768C86.0346 31.54 86.2146 31.186 86.2146 30.706ZM82.7226 27.43H84.3966C84.8646 27.43 85.2306 27.322 85.4946 27.106C85.7586 26.89 85.8906 26.572 85.8906 26.152C85.8906 25.768 85.7346 25.474 85.4226 25.27C85.1226 25.054 84.6666 24.946 84.0546 24.946C83.8266 24.946 83.5866 24.958 83.3346 24.982C83.0826 24.994 82.8786 25.012 82.7226 25.036V27.43ZM98.3508 31.282C98.2068 31.402 98.0208 31.498 97.7928 31.57C97.5648 31.642 97.3068 31.678 97.0188 31.678C96.6348 31.678 96.3108 31.63 96.0468 31.534C95.7948 31.438 95.6268 31.27 95.5428 31.03C95.1588 29.914 94.8288 28.99 94.5528 28.258C94.2888 27.514 94.0788 26.872 93.9228 26.332H93.8508C93.8148 27.076 93.7848 27.76 93.7608 28.384C93.7368 28.996 93.7128 29.596 93.6888 30.184C93.6768 30.772 93.6588 31.366 93.6348 31.966C93.6108 32.566 93.5808 33.226 93.5448 33.946C93.4128 33.994 93.2328 34.036 93.0048 34.072C92.7888 34.12 92.5608 34.144 92.3208 34.144C91.8528 34.144 91.4868 34.066 91.2228 33.91C90.9588 33.742 90.8268 33.46 90.8268 33.064C90.8268 32.836 90.8328 32.524 90.8448 32.128C90.8688 31.72 90.8928 31.258 90.9168 30.742C90.9528 30.214 90.9888 29.65 91.0248 29.05C91.0728 28.45 91.1148 27.844 91.1508 27.232C91.1988 26.608 91.2408 25.996 91.2768 25.396C91.3128 24.784 91.3488 24.22 91.3848 23.704C91.4808 23.572 91.6728 23.428 91.9608 23.272C92.2608 23.104 92.6748 23.02 93.2028 23.02C93.7668 23.02 94.2108 23.11 94.5348 23.29C94.8588 23.47 95.1048 23.764 95.2728 24.172C95.4048 24.496 95.5428 24.862 95.6868 25.27C95.8308 25.666 95.9748 26.074 96.1188 26.494C96.2628 26.914 96.4008 27.334 96.5328 27.754C96.6768 28.162 96.8088 28.54 96.9288 28.888H97.0188C97.3548 27.832 97.6908 26.812 98.0268 25.828C98.3628 24.832 98.6568 23.998 98.9088 23.326C99.0768 23.242 99.2868 23.17 99.5388 23.11C99.8028 23.05 100.091 23.02 100.403 23.02C100.943 23.02 101.375 23.098 101.699 23.254C102.023 23.41 102.215 23.638 102.275 23.938C102.323 24.178 102.377 24.544 102.437 25.036C102.497 25.528 102.557 26.092 102.617 26.728C102.677 27.364 102.737 28.036 102.797 28.744C102.857 29.44 102.911 30.118 102.959 30.778C103.007 31.426 103.049 32.02 103.085 32.56C103.121 33.1 103.145 33.52 103.157 33.82C102.977 33.928 102.785 34.006 102.581 34.054C102.377 34.114 102.119 34.144 101.807 34.144C101.411 34.144 101.069 34.072 100.781 33.928C100.505 33.784 100.355 33.502 100.331 33.082C100.247 31.69 100.187 30.418 100.151 29.266C100.127 28.102 100.097 27.148 100.061 26.404H99.9708C99.8268 26.908 99.6168 27.544 99.3408 28.312C99.0768 29.08 98.7468 30.07 98.3508 31.282ZM106.864 34.126C106.3 34.126 105.904 34.03 105.676 33.838C105.46 33.646 105.352 33.298 105.352 32.794V23.056C105.484 23.032 105.67 23.002 105.91 22.966C106.162 22.93 106.414 22.912 106.666 22.912C107.206 22.912 107.59 23.002 107.818 23.182C108.058 23.362 108.178 23.716 108.178 24.244V33.982C108.046 34.018 107.86 34.048 107.62 34.072C107.38 34.108 107.128 34.126 106.864 34.126ZM115.754 25.36V33.982C115.622 34.018 115.436 34.048 115.196 34.072C114.956 34.108 114.704 34.126 114.44 34.126C113.876 34.126 113.48 34.03 113.252 33.838C113.024 33.646 112.91 33.298 112.91 32.794V25.36H110.084C110.012 25.24 109.94 25.084 109.868 24.892C109.808 24.7 109.778 24.49 109.778 24.262C109.778 23.854 109.868 23.56 110.048 23.38C110.228 23.188 110.474 23.092 110.786 23.092H118.652C118.736 23.212 118.808 23.368 118.868 23.56C118.928 23.752 118.958 23.962 118.958 24.19C118.958 24.586 118.868 24.88 118.688 25.072C118.508 25.264 118.262 25.36 117.95 25.36H115.754Z" fill="#2F253F"/>
</svg>
